# Blender 3.3.1
# www.blender.org
mtllib ammobox.mtl
o Cube
v 1.000000 1.000000 -2.011581
v 1.000000 -1.000000 -2.011581
v 1.000000 1.000000 2.011581
v 1.000000 -1.000000 2.011581
v -1.000000 1.000000 -2.011581
v -1.000000 -1.000000 -2.011581
v -1.000000 1.000000 2.011581
v -1.000000 -1.000000 2.011581
vn -0.0000 1.0000 -0.0000
vn -0.0000 -0.0000 1.0000
vn -1.0000 -0.0000 -0.0000
vn -0.0000 -1.0000 -0.0000
vn 1.0000 -0.0000 -0.0000
vn -0.0000 -0.0000 -1.0000
vt 0.625000 0.500000
vt 0.375000 0.500000
vt 0.625000 0.750000
vt 0.375000 0.750000
vt 0.875000 0.500000
vt 0.625000 0.250000
vt 0.125000 0.500000
vt 0.375000 0.250000
vt 0.875000 0.750000
vt 0.625000 1.000000
vt 0.625000 0.000000
vt 0.375000 1.000000
vt 0.375000 0.000000
vt 0.125000 0.750000
s 0
usemtl Material
f 1/1/1 5/5/1 7/9/1 3/3/1
f 4/4/2 3/3/2 7/10/2 8/12/2
f 8/13/3 7/11/3 5/6/3 6/8/3
f 6/7/4 2/2/4 4/4/4 8/14/4
f 2/2/5 1/1/5 3/3/5 4/4/5
f 6/8/6 5/6/6 1/1/6 2/2/6
o Cube.001
v 1.000000 1.000000 -2.011581
v 1.000000 -1.000000 -2.011581
v 1.000000 1.000000 2.011581
v 1.000000 -1.000000 2.011581
v -1.000000 1.000000 -2.011581
v -1.000000 -1.000000 -2.011581
v -1.000000 1.000000 2.011581
v -1.000000 -1.000000 2.011581
vn -0.0000 1.0000 -0.0000
vn -0.0000 -0.0000 1.0000
vn -1.0000 -0.0000 -0.0000
vn -0.0000 -1.0000 -0.0000
vn 1.0000 -0.0000 -0.0000
vn -0.0000 -0.0000 -1.0000
vt 0.625000 0.500000
vt 0.375000 0.500000
vt 0.625000 0.750000
vt 0.375000 0.750000
vt 0.875000 0.500000
vt 0.625000 0.250000
vt 0.125000 0.500000
vt 0.375000 0.250000
vt 0.875000 0.750000
vt 0.625000 1.000000
vt 0.625000 0.000000
vt 0.375000 1.000000
vt 0.375000 0.000000
vt 0.125000 0.750000
s 0
usemtl Material.001
f 9/15/7 13/19/7 15/23/7 11/17/7
f 12/18/8 11/17/8 15/24/8 16/26/8
f 16/27/9 15/25/9 13/20/9 14/22/9
f 14/21/10 10/16/10 12/18/10 16/28/10
f 10/16/11 9/15/11 11/17/11 12/18/11
f 14/22/12 13/20/12 9/15/12 10/16/12
o Cube.002
v 0.007692 2.617075 -1.992083
v 0.102130 2.702113 -1.992083
v 1.005016 1.015789 -2.000835
v 1.103117 1.099214 -2.000835
v 0.003868 2.603702 2.011581
v 0.103617 2.700437 2.007985
v 1.005016 1.002087 2.003127
v 1.103117 1.097211 1.999328
v 1.031723 0.935261 1.784718
v 1.031723 0.935253 1.348851
v 1.045284 0.936630 1.784718
v 1.045284 0.936621 1.348851
v 1.058325 0.940683 1.784718
v 1.058325 0.940675 1.348851
v 1.070343 0.947265 1.784717
v 1.070343 0.947257 1.348850
v 1.080877 0.956123 1.784716
v 1.080877 0.956115 1.348849
v 1.089522 0.966916 1.784715
v 1.089522 0.966908 1.348848
v 1.095946 0.979230 1.784714
v 1.095946 0.979222 1.348847
v 1.099901 0.992592 1.784713
v 1.099901 0.992584 1.348846
v 1.101237 1.006487 1.784711
v 1.101237 1.006479 1.348844
v 1.099902 1.020383 1.784710
v 1.099902 1.020375 1.348843
v 1.095946 1.033745 1.784709
v 1.095946 1.033737 1.348842
v 1.089522 1.046059 1.784708
v 1.089522 1.046051 1.348840
v 1.080877 1.056852 1.784706
v 1.080877 1.056844 1.348840
v 1.070343 1.065710 1.784705
v 1.070343 1.065702 1.348839
v 1.058325 1.072292 1.784705
v 1.058325 1.072284 1.348838
v 1.045284 1.076345 1.784704
v 1.045284 1.076337 1.348838
v 1.031723 1.077714 1.784705
v 1.031723 1.077706 1.348837
v 1.018161 1.076345 1.784705
v 1.018161 1.076337 1.348837
v 1.005121 1.072292 1.784705
v 1.005121 1.072284 1.348838
v 0.993102 1.065710 1.784706
v 0.993102 1.065702 1.348838
v 0.982568 1.056852 1.784706
v 0.982569 1.056844 1.348839
v 0.973923 1.046059 1.784707
v 0.973923 1.046051 1.348840
v 0.967499 1.033745 1.784709
v 0.967499 1.033737 1.348842
v 0.963544 1.020383 1.784710
v 0.963544 1.020375 1.348843
v 0.962208 1.006487 1.784711
v 0.962208 1.006480 1.348844
v 0.963544 0.992592 1.784713
v 0.963544 0.992584 1.348846
v 0.967499 0.979230 1.784714
v 0.967500 0.979222 1.348847
v 0.973923 0.966916 1.784716
v 0.973924 0.966908 1.348848
v 0.982568 0.956123 1.784716
v 0.982568 0.956115 1.348849
v 0.993102 0.947265 1.784717
v 0.993102 0.947257 1.348850
v 1.005121 0.940683 1.784718
v 1.005121 0.940675 1.348851
v 1.018161 0.936629 1.784718
v 1.018161 0.936621 1.348851
v 1.031723 0.935261 -1.315282
v 1.031723 0.935253 -1.751149
v 1.045284 0.936630 -1.315282
v 1.045284 0.936621 -1.751149
v 1.058325 0.940683 -1.315282
v 1.058325 0.940675 -1.751149
v 1.070343 0.947265 -1.315283
v 1.070343 0.947257 -1.751150
v 1.080877 0.956123 -1.315284
v 1.080877 0.956115 -1.751150
v 1.089522 0.966916 -1.315285
v 1.089522 0.966908 -1.751152
v 1.095946 0.979230 -1.315286
v 1.095946 0.979222 -1.751153
v 1.099901 0.992592 -1.315287
v 1.099901 0.992584 -1.751154
v 1.101237 1.006487 -1.315289
v 1.101237 1.006479 -1.751156
v 1.099902 1.020383 -1.315290
v 1.099902 1.020375 -1.751157
v 1.095946 1.033745 -1.315291
v 1.095946 1.033737 -1.751158
v 1.089522 1.046059 -1.315292
v 1.089522 1.046051 -1.751159
v 1.080877 1.056852 -1.315294
v 1.080877 1.056844 -1.751160
v 1.070343 1.065710 -1.315295
v 1.070343 1.065702 -1.751161
v 1.058325 1.072292 -1.315295
v 1.058325 1.072284 -1.751162
v 1.045284 1.076345 -1.315296
v 1.045284 1.076337 -1.751162
v 1.031723 1.077714 -1.315296
v 1.031723 1.077706 -1.751163
v 1.018161 1.076345 -1.315295
v 1.018161 1.076337 -1.751163
v 1.005121 1.072292 -1.315295
v 1.005121 1.072284 -1.751162
v 0.993102 1.065710 -1.315294
v 0.993102 1.065702 -1.751161
v 0.982568 1.056852 -1.315294
v 0.982569 1.056844 -1.751161
v 0.973923 1.046059 -1.315293
v 0.973923 1.046051 -1.751159
v 0.967499 1.033745 -1.315291
v 0.967499 1.033737 -1.751158
v 0.963544 1.020383 -1.315290
v 0.963544 1.020375 -1.751157
v 0.962208 1.006487 -1.315289
v 0.962208 1.006480 -1.751155
v 0.963544 0.992592 -1.315287
v 0.963544 0.992584 -1.751154
v 0.967499 0.979230 -1.315286
v 0.967500 0.979222 -1.751153
v 0.973923 0.966916 -1.315284
v 0.973924 0.966908 -1.751152
v 0.982568 0.956123 -1.315284
v 0.982568 0.956115 -1.751150
v 0.993102 0.947265 -1.315283
v 0.993102 0.947257 -1.751150
v 1.005121 0.940683 -1.315282
v 1.005121 0.940675 -1.751149
v 1.018161 0.936629 -1.315282
v 1.018161 0.936621 -1.751149
v 1.031723 0.935261 0.284718
v 1.031723 0.935253 -0.151149
v 1.045284 0.936630 0.284718
v 1.045284 0.936621 -0.151149
v 1.058325 0.940683 0.284718
v 1.058325 0.940675 -0.151149
v 1.070343 0.947265 0.284717
v 1.070343 0.947257 -0.151150
v 1.080877 0.956123 0.284716
v 1.080877 0.956115 -0.151151
v 1.089522 0.966916 0.284715
v 1.089522 0.966908 -0.151152
v 1.095946 0.979230 0.284714
v 1.095946 0.979222 -0.151153
v 1.099901 0.992592 0.284713
v 1.099901 0.992584 -0.151154
v 1.101237 1.006487 0.284711
v 1.101237 1.006479 -0.151156
v 1.099902 1.020383 0.284710
v 1.099902 1.020375 -0.151157
v 1.095946 1.033745 0.284709
v 1.095946 1.033737 -0.151158
v 1.089522 1.046059 0.284708
v 1.089522 1.046051 -0.151159
v 1.080877 1.056852 0.284706
v 1.080877 1.056844 -0.151160
v 1.070343 1.065710 0.284705
v 1.070343 1.065702 -0.151161
v 1.058325 1.072292 0.284705
v 1.058325 1.072284 -0.151162
v 1.045284 1.076345 0.284704
v 1.045284 1.076337 -0.151162
v 1.031723 1.077714 0.284704
v 1.031723 1.077706 -0.151163
v 1.018161 1.076345 0.284705
v 1.018161 1.076337 -0.151162
v 1.005121 1.072292 0.284705
v 1.005121 1.072284 -0.151162
v 0.993102 1.065710 0.284706
v 0.993102 1.065702 -0.151161
v 0.982568 1.056852 0.284707
v 0.982569 1.056844 -0.151161
v 0.973923 1.046059 0.284707
v 0.973923 1.046051 -0.151159
v 0.967499 1.033745 0.284709
v 0.967499 1.033737 -0.151158
v 0.963544 1.020383 0.284710
v 0.963544 1.020375 -0.151157
v 0.962208 1.006487 0.284711
v 0.962208 1.006480 -0.151156
v 0.963544 0.992592 0.284713
v 0.963544 0.992584 -0.151154
v 0.967499 0.979230 0.284714
v 0.967500 0.979222 -0.151153
v 0.973923 0.966916 0.284716
v 0.973924 0.966908 -0.151152
v 0.982568 0.956123 0.284716
v 0.982568 0.956115 -0.151150
v 0.993102 0.947265 0.284717
v 0.993102 0.947257 -0.151150
v 1.005121 0.940683 0.284718
v 1.005121 0.940675 -0.151149
v 1.018161 0.936629 0.284718
v 1.018161 0.936621 -0.151149
vn -0.0031 0.0035 -1.0000
vn 0.6730 -0.7396 -0.0015
vn 0.0265 0.0112 0.9996
vn -0.6834 0.7301 0.0012
vn -0.8484 -0.5294 -0.0022
vn 0.8484 0.5294 0.0001
vn 0.1004 -0.9949 -0.0000
vn 0.2968 -0.9549 -0.0000
vn 0.4804 -0.8771 -0.0000
vn 0.6436 -0.7654 -0.0000
vn 0.7805 -0.6251 -0.0000
vn 0.8866 -0.4625 -0.0000
vn 0.9589 -0.2839 -0.0000
vn 0.9954 -0.0957 -0.0000
vn 0.9954 0.0957 -0.0000
vn 0.9589 0.2839 -0.0000
vn 0.8866 0.4625 -0.0000
vn 0.7805 0.6251 -0.0000
vn 0.6436 0.7654 -0.0000
vn 0.4804 0.8771 -0.0000
vn 0.2968 0.9549 -0.0000
vn 0.1004 0.9949 -0.0000
vn -0.1004 0.9949 -0.0000
vn -0.2968 0.9549 -0.0000
vn -0.4803 0.8771 -0.0000
vn -0.6436 0.7654 -0.0000
vn -0.7805 0.6252 -0.0000
vn -0.8866 0.4625 -0.0000
vn -0.9589 0.2839 -0.0000
vn -0.9954 0.0957 -0.0000
vn -0.9954 -0.0957 -0.0000
vn -0.9589 -0.2839 -0.0000
vn -0.8866 -0.4625 -0.0000
vn -0.7805 -0.6251 -0.0000
vn -0.6436 -0.7654 -0.0000
vn -0.4804 -0.8771 -0.0000
vn -0.0000 -0.0001 -1.0000
vn -0.2968 -0.9549 -0.0000
vn -0.1004 -0.9949 -0.0000
vn -0.0000 0.0001 1.0000
vt 0.125000 0.750000
vt 0.125000 0.749975
vt 0.875000 0.749975
vt 0.125000 0.500000
vt 0.125000 0.499974
vt 0.875001 0.499974
vt 0.375000 0.750000
vt 0.376540 0.750000
vt 0.717533 1.205822
vt 0.375000 0.500000
vt 0.375000 0.500000
vt 0.625000 0.500000
vt 1.000000 0.500000
vt 0.000000 0.500000
vt 0.750000 0.490000
vt 1.000000 1.000000
vt 0.250000 0.490000
vt 0.000000 1.000000
vt 0.968750 0.500000
vt 0.796822 0.485388
vt 0.968750 1.000000
vt 0.296822 0.485388
vt 0.937500 0.500000
vt 0.841844 0.471731
vt 0.937500 1.000000
vt 0.341844 0.471731
vt 0.906250 0.500000
vt 0.883337 0.449552
vt 0.906250 1.000000
vt 0.383337 0.449552
vt 0.875000 0.500000
vt 0.919706 0.419705
vt 0.875000 1.000000
vt 0.419706 0.419705
vt 0.843750 0.500000
vt 0.949553 0.383337
vt 0.843750 1.000000
vt 0.449553 0.383337
vt 0.812500 0.500000
vt 0.971731 0.341844
vt 0.812500 1.000000
vt 0.471731 0.341844
vt 0.781250 0.500000
vt 0.985389 0.296822
vt 0.781250 1.000000
vt 0.485388 0.296822
vt 0.750000 0.500000
vt 0.990000 0.250000
vt 0.750000 1.000000
vt 0.490000 0.250000
vt 0.718750 0.500000
vt 0.985388 0.203178
vt 0.718750 1.000000
vt 0.485388 0.203178
vt 0.687500 0.500000
vt 0.971731 0.158156
vt 0.687500 1.000000
vt 0.471731 0.158156
vt 0.656250 0.500000
vt 0.949553 0.116663
vt 0.656250 1.000000
vt 0.449553 0.116663
vt 0.625000 0.500000
vt 0.919706 0.080294
vt 0.625000 1.000000
vt 0.419706 0.080294
vt 0.593750 0.500000
vt 0.883337 0.050447
vt 0.593750 1.000000
vt 0.383337 0.050447
vt 0.562500 0.500000
vt 0.841844 0.028269
vt 0.562500 1.000000
vt 0.341844 0.028269
vt 0.531250 0.500000
vt 0.796822 0.014612
vt 0.531250 1.000000
vt 0.296822 0.014612
vt 0.500000 0.500000
vt 0.750000 0.010000
vt 0.500000 1.000000
vt 0.250000 0.010000
vt 0.468750 0.500000
vt 0.703178 0.014612
vt 0.468750 1.000000
vt 0.203178 0.014612
vt 0.437500 0.500000
vt 0.658156 0.028269
vt 0.437500 1.000000
vt 0.158156 0.028269
vt 0.406250 0.500000
vt 0.616663 0.050447
vt 0.406250 1.000000
vt 0.116663 0.050447
vt 0.375000 0.500000
vt 0.580294 0.080294
vt 0.375000 1.000000
vt 0.080294 0.080294
vt 0.343750 0.500000
vt 0.550447 0.116663
vt 0.343750 1.000000
vt 0.050447 0.116663
vt 0.312500 0.500000
vt 0.528269 0.158156
vt 0.312500 1.000000
vt 0.028269 0.158156
vt 0.281250 0.500000
vt 0.514612 0.203178
vt 0.281250 1.000000
vt 0.014612 0.203178
vt 0.250000 0.500000
vt 0.510000 0.250000
vt 0.250000 1.000000
vt 0.010000 0.250000
vt 0.218750 0.500000
vt 0.514612 0.296822
vt 0.218750 1.000000
vt 0.014612 0.296822
vt 0.187500 0.500000
vt 0.528269 0.341844
vt 0.187500 1.000000
vt 0.028269 0.341844
vt 0.156250 0.500000
vt 0.550447 0.383337
vt 0.156250 1.000000
vt 0.050447 0.383337
vt 0.125000 0.500000
vt 0.580294 0.419706
vt 0.125000 1.000000
vt 0.080294 0.419706
vt 0.093750 0.500000
vt 0.616663 0.449553
vt 0.093750 1.000000
vt 0.116663 0.449553
vt 0.062500 0.500000
vt 0.658156 0.471731
vt 0.158156 0.471731
vt 0.062500 1.000000
vt 0.031250 0.500000
vt 0.703178 0.485388
vt 0.203178 0.485388
vt 0.031250 1.000000
vt 1.000000 0.500000
vt 0.000000 0.500000
vt 0.750000 0.490000
vt 1.000000 1.000000
vt 0.250000 0.490000
vt 0.000000 1.000000
vt 0.968750 0.500000
vt 0.796822 0.485388
vt 0.968750 1.000000
vt 0.296822 0.485388
vt 0.937500 0.500000
vt 0.841844 0.471731
vt 0.937500 1.000000
vt 0.341844 0.471731
vt 0.906250 0.500000
vt 0.883337 0.449552
vt 0.906250 1.000000
vt 0.383337 0.449552
vt 0.875000 0.500000
vt 0.919706 0.419705
vt 0.875000 1.000000
vt 0.419706 0.419705
vt 0.843750 0.500000
vt 0.949553 0.383337
vt 0.843750 1.000000
vt 0.449553 0.383337
vt 0.812500 0.500000
vt 0.971731 0.341844
vt 0.812500 1.000000
vt 0.471731 0.341844
vt 0.781250 0.500000
vt 0.985389 0.296822
vt 0.781250 1.000000
vt 0.485388 0.296822
vt 0.750000 0.500000
vt 0.990000 0.250000
vt 0.750000 1.000000
vt 0.490000 0.250000
vt 0.718750 0.500000
vt 0.985388 0.203178
vt 0.718750 1.000000
vt 0.485388 0.203178
vt 0.687500 0.500000
vt 0.971731 0.158156
vt 0.687500 1.000000
vt 0.471731 0.158156
vt 0.656250 0.500000
vt 0.949553 0.116663
vt 0.656250 1.000000
vt 0.449553 0.116663
vt 0.625000 0.500000
vt 0.919706 0.080294
vt 0.625000 1.000000
vt 0.419706 0.080294
vt 0.593750 0.500000
vt 0.883337 0.050447
vt 0.593750 1.000000
vt 0.383337 0.050447
vt 0.562500 0.500000
vt 0.841844 0.028269
vt 0.562500 1.000000
vt 0.341844 0.028269
vt 0.531250 0.500000
vt 0.796822 0.014612
vt 0.531250 1.000000
vt 0.296822 0.014612
vt 0.500000 0.500000
vt 0.750000 0.010000
vt 0.500000 1.000000
vt 0.250000 0.010000
vt 0.468750 0.500000
vt 0.703178 0.014612
vt 0.468750 1.000000
vt 0.203178 0.014612
vt 0.437500 0.500000
vt 0.658156 0.028269
vt 0.437500 1.000000
vt 0.158156 0.028269
vt 0.406250 0.500000
vt 0.616663 0.050447
vt 0.406250 1.000000
vt 0.116663 0.050447
vt 0.375000 0.500000
vt 0.580294 0.080294
vt 0.375000 1.000000
vt 0.080294 0.080294
vt 0.343750 0.500000
vt 0.550447 0.116663
vt 0.343750 1.000000
vt 0.050447 0.116663
vt 0.312500 0.500000
vt 0.528269 0.158156
vt 0.312500 1.000000
vt 0.028269 0.158156
vt 0.281250 0.500000
vt 0.514612 0.203178
vt 0.281250 1.000000
vt 0.014612 0.203178
vt 0.250000 0.500000
vt 0.510000 0.250000
vt 0.250000 1.000000
vt 0.010000 0.250000
vt 0.218750 0.500000
vt 0.514612 0.296822
vt 0.218750 1.000000
vt 0.014612 0.296822
vt 0.187500 0.500000
vt 0.528269 0.341844
vt 0.187500 1.000000
vt 0.028269 0.341844
vt 0.156250 0.500000
vt 0.550447 0.383337
vt 0.156250 1.000000
vt 0.050447 0.383337
vt 0.125000 0.500000
vt 0.580294 0.419706
vt 0.125000 1.000000
vt 0.080294 0.419706
vt 0.093750 0.500000
vt 0.616663 0.449553
vt 0.093750 1.000000
vt 0.116663 0.449553
vt 0.062500 0.500000
vt 0.658156 0.471731
vt 0.158156 0.471731
vt 0.062500 1.000000
vt 0.031250 0.500000
vt 0.703178 0.485388
vt 0.203178 0.485388
vt 0.031250 1.000000
vt 1.000000 0.500000
vt 0.000000 0.500000
vt 0.750000 0.490000
vt 1.000000 1.000000
vt 0.250000 0.490000
vt 0.000000 1.000000
vt 0.968750 0.500000
vt 0.796822 0.485388
vt 0.968750 1.000000
vt 0.296822 0.485388
vt 0.937500 0.500000
vt 0.841844 0.471731
vt 0.937500 1.000000
vt 0.341844 0.471731
vt 0.906250 0.500000
vt 0.883337 0.449552
vt 0.906250 1.000000
vt 0.383337 0.449552
vt 0.875000 0.500000
vt 0.919706 0.419705
vt 0.875000 1.000000
vt 0.419706 0.419705
vt 0.843750 0.500000
vt 0.949553 0.383337
vt 0.843750 1.000000
vt 0.449553 0.383337
vt 0.812500 0.500000
vt 0.971731 0.341844
vt 0.812500 1.000000
vt 0.471731 0.341844
vt 0.781250 0.500000
vt 0.985389 0.296822
vt 0.781250 1.000000
vt 0.485388 0.296822
vt 0.750000 0.500000
vt 0.990000 0.250000
vt 0.750000 1.000000
vt 0.490000 0.250000
vt 0.718750 0.500000
vt 0.985388 0.203178
vt 0.718750 1.000000
vt 0.485388 0.203178
vt 0.687500 0.500000
vt 0.971731 0.158156
vt 0.687500 1.000000
vt 0.471731 0.158156
vt 0.656250 0.500000
vt 0.949553 0.116663
vt 0.656250 1.000000
vt 0.449553 0.116663
vt 0.625000 0.500000
vt 0.919706 0.080294
vt 0.625000 1.000000
vt 0.419706 0.080294
vt 0.593750 0.500000
vt 0.883337 0.050447
vt 0.593750 1.000000
vt 0.383337 0.050447
vt 0.562500 0.500000
vt 0.841844 0.028269
vt 0.562500 1.000000
vt 0.341844 0.028269
vt 0.531250 0.500000
vt 0.796822 0.014612
vt 0.531250 1.000000
vt 0.296822 0.014612
vt 0.500000 0.500000
vt 0.750000 0.010000
vt 0.500000 1.000000
vt 0.250000 0.010000
vt 0.468750 0.500000
vt 0.703178 0.014612
vt 0.468750 1.000000
vt 0.203178 0.014612
vt 0.437500 0.500000
vt 0.658156 0.028269
vt 0.437500 1.000000
vt 0.158156 0.028269
vt 0.406250 0.500000
vt 0.616663 0.050447
vt 0.406250 1.000000
vt 0.116663 0.050447
vt 0.375000 0.500000
vt 0.580294 0.080294
vt 0.375000 1.000000
vt 0.080294 0.080294
vt 0.343750 0.500000
vt 0.550447 0.116663
vt 0.343750 1.000000
vt 0.050447 0.116663
vt 0.312500 0.500000
vt 0.528269 0.158156
vt 0.312500 1.000000
vt 0.028269 0.158156
vt 0.281250 0.500000
vt 0.514612 0.203178
vt 0.281250 1.000000
vt 0.014612 0.203178
vt 0.250000 0.500000
vt 0.510000 0.250000
vt 0.250000 1.000000
vt 0.010000 0.250000
vt 0.218750 0.500000
vt 0.514612 0.296822
vt 0.218750 1.000000
vt 0.014612 0.296822
vt 0.187500 0.500000
vt 0.528269 0.341844
vt 0.187500 1.000000
vt 0.028269 0.341844
vt 0.156250 0.500000
vt 0.550447 0.383337
vt 0.156250 1.000000
vt 0.050447 0.383337
vt 0.125000 0.500000
vt 0.580294 0.419706
vt 0.125000 1.000000
vt 0.080294 0.419706
vt 0.093750 0.500000
vt 0.616663 0.449553
vt 0.093750 1.000000
vt 0.116663 0.449553
vt 0.062500 0.500000
vt 0.658156 0.471731
vt 0.158156 0.471731
vt 0.062500 1.000000
vt 0.031250 0.500000
vt 0.703178 0.485388
vt 0.203178 0.485388
vt 0.031250 1.000000
s 0
f 17/29/13 18/30/13 20/33/13 19/32/13
f 19/32/14 20/33/14 24/39/14 23/38/14
f 23/38/15 24/40/15 22/37/15 21/35/15
f 21/35/16 22/36/16 18/30/16 17/29/16
f 19/32/17 23/38/17 21/35/17 17/29/17
f 24/40/18 20/34/18 18/31/18 22/37/18
f 25/41/19 26/44/19 28/49/19 27/47/19
f 27/47/20 28/49/20 30/53/20 29/51/20
f 29/51/21 30/53/21 32/57/21 31/55/21
f 31/55/22 32/57/22 34/61/22 33/59/22
f 33/59/23 34/61/23 36/65/23 35/63/23
f 35/63/24 36/65/24 38/69/24 37/67/24
f 37/67/25 38/69/25 40/73/25 39/71/25
f 39/71/26 40/73/26 42/77/26 41/75/26
f 41/75/27 42/77/27 44/81/27 43/79/27
f 43/79/28 44/81/28 46/85/28 45/83/28
f 45/83/29 46/85/29 48/89/29 47/87/29
f 47/87/30 48/89/30 50/93/30 49/91/30
f 49/91/31 50/93/31 52/97/31 51/95/31
f 51/95/32 52/97/32 54/101/32 53/99/32
f 53/99/33 54/101/33 56/105/33 55/103/33
f 55/103/34 56/105/34 58/109/34 57/107/34
f 57/107/35 58/109/35 60/113/35 59/111/35
f 59/111/36 60/113/36 62/117/36 61/115/36
f 61/115/37 62/117/37 64/121/37 63/119/37
f 63/119/38 64/121/38 66/125/38 65/123/38
f 65/123/39 66/125/39 68/129/39 67/127/39
f 67/127/40 68/129/40 70/133/40 69/131/40
f 69/131/41 70/133/41 72/137/41 71/135/41
f 71/135/42 72/137/42 74/141/42 73/139/42
f 73/139/43 74/141/43 76/145/43 75/143/43
f 75/143/44 76/145/44 78/149/44 77/147/44
f 77/147/45 78/149/45 80/153/45 79/151/45
f 79/151/46 80/153/46 82/157/46 81/155/46
f 81/155/47 82/157/47 84/161/47 83/159/47
f 83/159/48 84/161/48 86/166/48 85/163/48
f 28/50/49 26/45/49 88/169/49 86/165/49 84/162/49 82/158/49 80/154/49 78/150/49 76/146/49 74/142/49 72/138/49 70/134/49 68/130/49 66/126/49 64/122/49 62/118/49 60/114/49 58/110/49 56/106/49 54/102/49 52/98/49 50/94/49 48/90/49 46/86/49 44/82/49 42/78/49 40/74/49 38/70/49 36/66/49 34/62/49 32/58/49 30/54/49
f 85/163/50 86/166/50 88/170/50 87/167/50
f 87/167/51 88/170/51 26/46/51 25/42/51
f 25/43/52 27/48/52 29/52/52 31/56/52 33/60/52 35/64/52 37/68/52 39/72/52 41/76/52 43/80/52 45/84/52 47/88/52 49/92/52 51/96/52 53/100/52 55/104/52 57/108/52 59/112/52 61/116/52 63/120/52 65/124/52 67/128/52 69/132/52 71/136/52 73/140/52 75/144/52 77/148/52 79/152/52 81/156/52 83/160/52 85/164/52 87/168/52
f 89/171/19 90/174/19 92/179/19 91/177/19
f 91/177/20 92/179/20 94/183/20 93/181/20
f 93/181/21 94/183/21 96/187/21 95/185/21
f 95/185/22 96/187/22 98/191/22 97/189/22
f 97/189/23 98/191/23 100/195/23 99/193/23
f 99/193/24 100/195/24 102/199/24 101/197/24
f 101/197/25 102/199/25 104/203/25 103/201/25
f 103/201/26 104/203/26 106/207/26 105/205/26
f 105/205/27 106/207/27 108/211/27 107/209/27
f 107/209/28 108/211/28 110/215/28 109/213/28
f 109/213/29 110/215/29 112/219/29 111/217/29
f 111/217/30 112/219/30 114/223/30 113/221/30
f 113/221/31 114/223/31 116/227/31 115/225/31
f 115/225/32 116/227/32 118/231/32 117/229/32
f 117/229/33 118/231/33 120/235/33 119/233/33
f 119/233/34 120/235/34 122/239/34 121/237/34
f 121/237/35 122/239/35 124/243/35 123/241/35
f 123/241/36 124/243/36 126/247/36 125/245/36
f 125/245/37 126/247/37 128/251/37 127/249/37
f 127/249/38 128/251/38 130/255/38 129/253/38
f 129/253/39 130/255/39 132/259/39 131/257/39
f 131/257/40 132/259/40 134/263/40 133/261/40
f 133/261/41 134/263/41 136/267/41 135/265/41
f 135/265/42 136/267/42 138/271/42 137/269/42
f 137/269/43 138/271/43 140/275/43 139/273/43
f 139/273/44 140/275/44 142/279/44 141/277/44
f 141/277/45 142/279/45 144/283/45 143/281/45
f 143/281/46 144/283/46 146/287/46 145/285/46
f 145/285/47 146/287/47 148/291/47 147/289/47
f 147/289/48 148/291/48 150/296/48 149/293/48
f 92/180/49 90/175/49 152/299/49 150/295/49 148/292/49 146/288/49 144/284/49 142/280/49 140/276/49 138/272/49 136/268/49 134/264/49 132/260/49 130/256/49 128/252/49 126/248/49 124/244/49 122/240/49 120/236/49 118/232/49 116/228/49 114/224/49 112/220/49 110/216/49 108/212/49 106/208/49 104/204/49 102/200/49 100/196/49 98/192/49 96/188/49 94/184/49
f 149/293/50 150/296/50 152/300/50 151/297/50
f 151/297/51 152/300/51 90/176/51 89/172/51
f 89/173/52 91/178/52 93/182/52 95/186/52 97/190/52 99/194/52 101/198/52 103/202/52 105/206/52 107/210/52 109/214/52 111/218/52 113/222/52 115/226/52 117/230/52 119/234/52 121/238/52 123/242/52 125/246/52 127/250/52 129/254/52 131/258/52 133/262/52 135/266/52 137/270/52 139/274/52 141/278/52 143/282/52 145/286/52 147/290/52 149/294/52 151/298/52
f 153/301/19 154/304/19 156/309/19 155/307/19
f 155/307/20 156/309/20 158/313/20 157/311/20
f 157/311/21 158/313/21 160/317/21 159/315/21
f 159/315/22 160/317/22 162/321/22 161/319/22
f 161/319/23 162/321/23 164/325/23 163/323/23
f 163/323/24 164/325/24 166/329/24 165/327/24
f 165/327/25 166/329/25 168/333/25 167/331/25
f 167/331/26 168/333/26 170/337/26 169/335/26
f 169/335/27 170/337/27 172/341/27 171/339/27
f 171/339/28 172/341/28 174/345/28 173/343/28
f 173/343/29 174/345/29 176/349/29 175/347/29
f 175/347/30 176/349/30 178/353/30 177/351/30
f 177/351/31 178/353/31 180/357/31 179/355/31
f 179/355/32 180/357/32 182/361/32 181/359/32
f 181/359/33 182/361/33 184/365/33 183/363/33
f 183/363/34 184/365/34 186/369/34 185/367/34
f 185/367/35 186/369/35 188/373/35 187/371/35
f 187/371/36 188/373/36 190/377/36 189/375/36
f 189/375/37 190/377/37 192/381/37 191/379/37
f 191/379/38 192/381/38 194/385/38 193/383/38
f 193/383/39 194/385/39 196/389/39 195/387/39
f 195/387/40 196/389/40 198/393/40 197/391/40
f 197/391/41 198/393/41 200/397/41 199/395/41
f 199/395/42 200/397/42 202/401/42 201/399/42
f 201/399/43 202/401/43 204/405/43 203/403/43
f 203/403/44 204/405/44 206/409/44 205/407/44
f 205/407/45 206/409/45 208/413/45 207/411/45
f 207/411/46 208/413/46 210/417/46 209/415/46
f 209/415/47 210/417/47 212/421/47 211/419/47
f 211/419/48 212/421/48 214/426/48 213/423/48
f 156/310/49 154/305/49 216/429/49 214/425/49 212/422/49 210/418/49 208/414/49 206/410/49 204/406/49 202/402/49 200/398/49 198/394/49 196/390/49 194/386/49 192/382/49 190/378/49 188/374/49 186/370/49 184/366/49 182/362/49 180/358/49 178/354/49 176/350/49 174/346/49 172/342/49 170/338/49 168/334/49 166/330/49 164/326/49 162/322/49 160/318/49 158/314/49
f 213/423/50 214/426/50 216/430/50 215/427/50
f 215/427/51 216/430/51 154/306/51 153/302/51
f 153/303/52 155/308/52 157/312/52 159/316/52 161/320/52 163/324/52 165/328/52 167/332/52 169/336/52 171/340/52 173/344/52 175/348/52 177/352/52 179/356/52 181/360/52 183/364/52 185/368/52 187/372/52 189/376/52 191/380/52 193/384/52 195/388/52 197/392/52 199/396/52 201/400/52 203/404/52 205/408/52 207/412/52 209/416/52 211/420/52 213/424/52 215/428/52
